<svg xmlns="http://www.w3.org/2000/svg" viewBox="0 0 1200 630">
  <defs>
    <radialGradient id="glowCyan" cx="15%" cy="15%" r="45%">
      <stop offset="0%" stop-color="#00f0ff" stop-opacity="0.16"/>
      <stop offset="100%" stop-color="#00f0ff" stop-opacity="0"/>
    </radialGradient>
    <radialGradient id="glowMagenta" cx="88%" cy="85%" r="45%">
      <stop offset="0%" stop-color="#ff2ec4" stop-opacity="0.14"/>
      <stop offset="100%" stop-color="#ff2ec4" stop-opacity="0"/>
    </radialGradient>
  </defs>

  <rect width="1200" height="630" fill="#030305"/>
  <rect width="1200" height="630" fill="url(#glowCyan)"/>
  <rect width="1200" height="630" fill="url(#glowMagenta)"/>

  <!-- Graphe décoratif : nœuds + routes, cantonnés aux bords pour ne pas
       croiser le titre (zone centrale ~x:370-830 y:200-470 réservée). -->
  <g stroke-width="1.4" opacity="0.7">
    <line x1="60" y1="120" x2="150" y2="220" stroke="#41415c"/>
    <line x1="150" y1="220" x2="90" y2="340" stroke="#00f0ff" stroke-dasharray="4 5"/>
    <line x1="90" y1="340" x2="180" y2="470" stroke="#ffd60a"/>
    <line x1="180" y1="470" x2="120" y2="580" stroke="#41415c"/>
    <line x1="150" y1="220" x2="280" y2="150" stroke="#b14bff" stroke-dasharray="1 5"/>
    <line x1="280" y1="150" x2="330" y2="60" stroke="#41415c"/>

    <line x1="1140" y1="110" x2="1050" y2="200" stroke="#41415c"/>
    <line x1="1050" y1="200" x2="1110" y2="330" stroke="#00f0ff" stroke-dasharray="4 5"/>
    <line x1="1110" y1="330" x2="1020" y2="450" stroke="#ffd60a"/>
    <line x1="1020" y1="450" x2="1090" y2="560" stroke="#41415c"/>
    <line x1="1050" y1="200" x2="920" y2="140" stroke="#b14bff" stroke-dasharray="1 5"/>
    <line x1="920" y1="140" x2="870" y2="50" stroke="#41415c"/>

    <line x1="180" y1="470" x2="330" y2="540" stroke="#00f0ff" stroke-dasharray="4 5"/>
    <line x1="1020" y1="450" x2="880" y2="540" stroke="#b14bff" stroke-dasharray="1 5"/>
  </g>
  <g>
    <circle cx="60" cy="120" r="6" fill="#12121c" stroke="#ffd60a" stroke-width="2"/>
    <circle cx="150" cy="220" r="8" fill="#12121c" stroke="#ffd60a" stroke-width="2.4"/>
    <circle cx="90" cy="340" r="6" fill="#12121c" stroke="#00f0ff" stroke-width="2.2"/>
    <circle cx="180" cy="470" r="9" fill="#12121c" stroke="#ff2ec4" stroke-width="2.8"/>
    <circle cx="120" cy="580" r="6" fill="#12121c" stroke="#ffd60a" stroke-width="2"/>
    <circle cx="280" cy="150" r="7" fill="#12121c" stroke="#ffd60a" stroke-width="2.2"/>
    <circle cx="330" cy="60" r="5" fill="#12121c" stroke="#ffd60a" stroke-width="1.8"/>
    <circle cx="330" cy="540" r="6" fill="#12121c" stroke="#ffd60a" stroke-width="2"/>

    <circle cx="1140" cy="110" r="6" fill="#12121c" stroke="#ffd60a" stroke-width="2"/>
    <circle cx="1050" cy="200" r="8" fill="#12121c" stroke="#ffd60a" stroke-width="2.4"/>
    <circle cx="1110" cy="330" r="6" fill="#12121c" stroke="#00f0ff" stroke-width="2.2"/>
    <circle cx="1020" cy="450" r="9" fill="#12121c" stroke="#ff2ec4" stroke-width="2.8"/>
    <circle cx="1090" cy="560" r="6" fill="#12121c" stroke="#ffd60a" stroke-width="2"/>
    <circle cx="920" cy="140" r="7" fill="#12121c" stroke="#ffd60a" stroke-width="2.2"/>
    <circle cx="870" cy="50" r="5" fill="#12121c" stroke="#ffd60a" stroke-width="1.8"/>
    <circle cx="880" cy="540" r="6" fill="#12121c" stroke="#ffd60a" stroke-width="2"/>
  </g>

  <!-- Titre -->
  <text x="600" y="300" text-anchor="middle" font-family="'JetBrains Mono', 'Courier New', monospace" font-size="72" font-weight="700" fill="#ffd60a" style="text-shadow:0 0 24px rgba(255,214,10,0.6)">BACKROOMS</text>
  <text x="600" y="352" text-anchor="middle" font-family="'JetBrains Mono', 'Courier New', monospace" font-size="30" fill="#f2f2fa">Interactive Map</text>
  <text x="600" y="400" text-anchor="middle" font-family="'JetBrains Mono', 'Courier New', monospace" font-size="20" fill="#8b8ba8">99 levels · routes · entities · FR / EN / DE</text>

  <rect x="420" y="440" width="360" height="1" fill="#26263a"/>
  <text x="600" y="480" text-anchor="middle" font-family="'JetBrains Mono', 'Courier New', monospace" font-size="18" fill="#00f0ff">robote7701.github.io/backrooms-map</text>
</svg>
